<?xml version="1.0" encoding="UTF-8" standalone="no"?>
<!-- Created with Inkscape (http://www.inkscape.org/) -->

<svg
   width="48.922447mm"
   height="10mm"
   viewBox="0 0 48.922447 10"
   version="1.1"
   id="svg1"
   inkscape:version="1.3.2 (091e20e, 2023-11-25)"
   sodipodi:docname="NTT_sh.svg"
   xmlns:inkscape="http://www.inkscape.org/namespaces/inkscape"
   xmlns:sodipodi="http://sodipodi.sourceforge.net/DTD/sodipodi-0.dtd"
   xmlns="http://www.w3.org/2000/svg"
   xmlns:svg="http://www.w3.org/2000/svg">
  <sodipodi:namedview
     id="namedview1"
     pagecolor="#ffffff"
     bordercolor="#000000"
     borderopacity="0.25"
     inkscape:showpageshadow="2"
     inkscape:pageopacity="0.0"
     inkscape:pagecheckerboard="0"
     inkscape:deskcolor="#d1d1d1"
     inkscape:document-units="mm"
     inkscape:zoom="4.1335578"
     inkscape:cx="32.417594"
     inkscape:cy="23.103584"
     inkscape:window-width="1472"
     inkscape:window-height="828"
     inkscape:window-x="0"
     inkscape:window-y="38"
     inkscape:window-maximized="0"
     inkscape:current-layer="layer1" />
  <defs
     id="defs1">
    <clipPath
       id="D">
      <path
         d="M 0,454 H 2551.18 V 0 H 0 Z"
         transform="translate(-170.866,-125.406)"
         id="path1" />
    </clipPath>
    <clipPath
       id="N">
      <path
         d="M 0,454 H 2551.18 V 0 H 0 Z"
         transform="translate(-354.768,-217.429)"
         id="path6" />
    </clipPath>
    <clipPath
       id="P">
      <path
         d="M 0,454 H 2551.18 V 0 H 0 Z"
         transform="translate(-520.875,-252.42)"
         id="path7" />
    </clipPath>
    <clipPath
       id="R">
      <path
         d="M 0,454 H 2551.18 V 0 H 0 Z"
         transform="translate(-657.992,-150.645)"
         id="path8" />
    </clipPath>
    <clipPath
       id="T">
      <path
         d="M 0,454 H 2551.18 V 0 H 0 Z"
         transform="translate(-836.162,-149.152)"
         id="path9" />
    </clipPath>
    <clipPath
       id="V">
      <path
         d="M 0,454 H 2551.18 V 0 H 0 Z"
         transform="translate(-947.887,-238.979)"
         id="path10" />
    </clipPath>
    <clipPath
       id="X">
      <path
         d="M 0,454 H 2551.18 V 0 H 0 Z"
         id="path11" />
    </clipPath>
    <clipPath
       id="Z">
      <path
         d="M 0,454 H 2551.18 V 0 H 0 Z"
         transform="translate(-1063.84,-238.979)"
         id="path12" />
    </clipPath>
  </defs>
  <g
     inkscape:label="Capa 1"
     inkscape:groupmode="layer"
     id="layer1">
    <g
       id="g1"
       transform="matrix(2.4461834,0,0,2.4461834,-6.1092941e-4,-7.2309169)">
      <path
         class="st1"
         d="m 2.6829051,2.9559995 c -0.1951022,0 -0.3871559,0.042679 -0.5228129,0.097551 -0.135657,-0.054873 -0.3277108,-0.097551 -0.522813,-0.097551 -0.85966909,0 -1.637029452,0.813942 -1.637029452,1.9296828 0,1.2163403 0.993801872,2.1583182 2.159842452,2.1583182 1.1660405,0 2.1598424,-0.9404537 2.1598424,-2.1583182 0,-1.1157408 -0.7773604,-1.9296828 -1.6370295,-1.9296828 z M 2.1600922,3.6190422 c 0.1661417,0.099075 0.3841074,0.3841074 0.3841074,0.7072455 0,0.2362565 -0.155472,0.4222133 -0.3841074,0.4222133 -0.2286354,0 -0.3841075,-0.1859568 -0.3841075,-0.4222133 -0.00152,-0.3231381 0.2179657,-0.6081702 0.3841075,-0.7072455 z m 0,2.8929999 c -0.8916781,0 -1.62940832,-0.7179152 -1.62940832,-1.6370295 0,-0.839854 0.60664592,-1.4129667 1.08220752,-1.3916274 -0.2255869,0.2240626 -0.3627681,0.5517734 -0.3627681,0.8688145 0,0.5456765 0.432883,0.9282597 0.9099689,0.9282597 0.4770858,0 0.9099689,-0.3825832 0.9099689,-0.9282597 0,-0.3170411 -0.1371813,-0.6447519 -0.3627682,-0.8688145 0.4755616,-0.021339 1.0822075,0.5517734 1.0822075,1.3916274 0,0.9206386 -0.7377302,1.6370295 -1.6294082,1.6370295 z"
         id="path1-8"
         style="clip-rule:evenodd;fill:#0072bc;fill-rule:evenodd;stroke-width:0.0152424" />
      <path
         class="st2"
         d="m 7.4309002,3.8873077 v 0.4450769 c 0,0 0.6295095,0 0.6782851,0 0,0.048776 0,1.6690384 0,1.6690384 h 0.4801343 c 0,0 0,-1.6187386 0,-1.6690384 0.047251,0 0.678285,0 0.678285,0 V 3.8873077 Z"
         id="path2"
         style="fill:#0072bc;stroke-width:0.0152424" />
      <path
         class="st2"
         d="m 15.331015,3.8873077 h -1.208719 v 0.4481254 h 1.17671 c 0.172239,0 0.239306,0.07926 0.239306,0.2804594 0,0.00152 0,0.057921 0,0.074688 -0.04878,0 -0.975512,0 -0.975512,0 -0.370389,0 -0.554821,0.1859568 -0.554821,0.6051217 v 0.099075 c 0,0.4313588 0.190529,0.6035975 0.576161,0.6035975 h 1.429733 V 4.6097956 C 16.015397,4.0793614 15.838586,3.8873077 15.331015,3.8873077 Z M 14.63444,5.5487249 c -0.07316,0 -0.153948,-0.036582 -0.153948,-0.2179657 0,-0.1813841 0.08078,-0.2133931 0.153948,-0.2133931 0,0 0.85662,0 0.905396,0 v 0.4313588 c -0.04878,0 -0.905396,0 -0.905396,0 z"
         id="path3"
         style="fill:#0072bc;stroke-width:0.0152424" />
      <path
         class="st2"
         d="m 19.316893,3.8873077 h -1.20872 v 0.4481254 h 1.176711 c 0.172238,0 0.239305,0.07926 0.239305,0.2804594 0,0.00152 0,0.057921 0,0.074688 -0.04878,0 -0.975511,0 -0.975511,0 -0.37039,0 -0.554822,0.1859568 -0.554822,0.6051217 v 0.099075 c 0,0.4313588 0.190529,0.6035975 0.576161,0.6035975 h 1.429733 v -1.388579 c 0,-0.5304342 -0.175287,-0.7224879 -0.682857,-0.722488 z m -0.696576,1.6614172 c -0.07316,0 -0.153948,-0.036582 -0.153948,-0.2179657 0,-0.1813841 0.08078,-0.2133931 0.153948,-0.2133931 0,0 0.85662,0 0.905396,0 v 0.4313588 c -0.04878,0 -0.905396,0 -0.905396,0 z"
         id="path4"
         style="fill:#0072bc;stroke-width:0.0152424" />
      <path
         class="st2"
         d="m 9.418504,3.8873077 v 0.4450769 c 0,0 0.631034,0 0.678285,0 0,0.048776 0,1.6690384 0,1.6690384 h 0.480134 c 0,0 0,-1.6187386 0,-1.6690384 0.04725,0 0.678285,0 0.678285,0 V 3.8873077 Z"
         id="path5"
         style="fill:#0072bc;stroke-width:0.0152424" />
      <path
         class="st2"
         d="m 16.111424,3.8873077 v 0.4450769 c 0,0 0.62951,0 0.678285,0 0,0.048776 0,1.6690384 0,1.6690384 h 0.480135 c 0,0 0,-1.6187386 0,-1.6690384 0.04725,0 0.678285,0 0.678285,0 V 3.8873077 Z"
         id="path6-3"
         style="fill:#0072bc;stroke-width:0.0152424" />
      <path
         class="st2"
         d="M 13.823546,5.2606443 V 4.6280864 c 0,-0.5532977 -0.214917,-0.7407787 -0.699624,-0.7407787 h -1.284931 v 2.1125911 h 1.307794 c 0.513668,0 0.676761,-0.2545474 0.676761,-0.7392545 z m -0.490804,0.00915 c 0,0.2027234 -0.06859,0.2804595 -0.240829,0.2804595 0,0 -0.725537,0 -0.772788,0 V 4.3369573 c 0.04725,0 0.772788,0 0.772788,0 0.172238,0 0.240829,0.07926 0.240829,0.2804594 0,0.00305 0,0.652373 0,0.652373 z"
         id="path7-2"
         style="fill:#0072bc;stroke-width:0.0152424" />
      <path
         class="st2"
         d="M 6.7541395,5.4969009 C 6.7434698,5.4770858 6.1017665,4.2272123 6.0240304,4.1052734 5.9341005,3.9635195 5.8228313,3.8644442 5.6124867,3.8644442 c -0.1966264,0 -0.4283103,0.086881 -0.4283103,0.5578703 v 1.5806328 h 0.4740374 c 0,0 0,-1.2224373 0,-1.3184642 0,-0.094503 -0.0061,-0.2347323 -0.00762,-0.2621686 -0.00152,-0.022863 0,-0.045727 0.012194,-0.051824 0.013718,-0.00762 0.027436,0.00457 0.036582,0.022864 0.00915,0.018291 0.6035974,1.1934768 0.730109,1.3916275 0.08993,0.141754 0.2011991,0.2408293 0.4115437,0.2408293 0.1951022,0 0.4283103,-0.086881 0.4283103,-0.5578704 V 3.8873077 H 6.7968181 c 0,0 0,1.2224373 0,1.3184641 0,0.094503 0.0061,0.2347324 0.00762,0.2636929 0.00152,0.022864 0,0.045727 -0.012194,0.051824 -0.015242,0.0061 -0.02896,-0.0061 -0.038106,-0.024388 z"
         id="path8-3"
         style="fill:#0072bc;stroke-width:0.0152424" />
    </g>
  </g>
</svg>
