<?xml version="1.0" encoding="UTF-8" standalone="no"?>
<!-- Created with Inkscape (http://www.inkscape.org/) -->

<svg
   width="41.16914mm"
   height="10mm"
   viewBox="0 0 41.16914 10"
   version="1.1"
   id="svg1"
   inkscape:version="1.3.2 (091e20e, 2023-11-25)"
   sodipodi:docname="RIPE_sh.svg"
   xmlns:inkscape="http://www.inkscape.org/namespaces/inkscape"
   xmlns:sodipodi="http://sodipodi.sourceforge.net/DTD/sodipodi-0.dtd"
   xmlns="http://www.w3.org/2000/svg"
   xmlns:svg="http://www.w3.org/2000/svg">
  <sodipodi:namedview
     id="namedview1"
     pagecolor="#ffffff"
     bordercolor="#000000"
     borderopacity="0.25"
     inkscape:showpageshadow="2"
     inkscape:pageopacity="0.0"
     inkscape:pagecheckerboard="0"
     inkscape:deskcolor="#d1d1d1"
     inkscape:document-units="mm"
     inkscape:zoom="4.1335578"
     inkscape:cx="32.417594"
     inkscape:cy="22.619739"
     inkscape:window-width="1472"
     inkscape:window-height="828"
     inkscape:window-x="0"
     inkscape:window-y="38"
     inkscape:window-maximized="0"
     inkscape:current-layer="layer1" />
  <defs
     id="defs1">
    <clipPath
       id="D">
      <path
         d="M 0,454 H 2551.18 V 0 H 0 Z"
         transform="translate(-170.866,-125.406)"
         id="path1" />
    </clipPath>
    <clipPath
       id="N">
      <path
         d="M 0,454 H 2551.18 V 0 H 0 Z"
         transform="translate(-354.768,-217.429)"
         id="path6" />
    </clipPath>
    <clipPath
       id="P">
      <path
         d="M 0,454 H 2551.18 V 0 H 0 Z"
         transform="translate(-520.875,-252.42)"
         id="path7" />
    </clipPath>
    <clipPath
       id="R">
      <path
         d="M 0,454 H 2551.18 V 0 H 0 Z"
         transform="translate(-657.992,-150.645)"
         id="path8" />
    </clipPath>
    <clipPath
       id="T">
      <path
         d="M 0,454 H 2551.18 V 0 H 0 Z"
         transform="translate(-836.162,-149.152)"
         id="path9" />
    </clipPath>
    <clipPath
       id="V">
      <path
         d="M 0,454 H 2551.18 V 0 H 0 Z"
         transform="translate(-947.887,-238.979)"
         id="path10" />
    </clipPath>
    <clipPath
       id="X">
      <path
         d="M 0,454 H 2551.18 V 0 H 0 Z"
         id="path11" />
    </clipPath>
    <clipPath
       id="Z">
      <path
         d="M 0,454 H 2551.18 V 0 H 0 Z"
         transform="translate(-1063.84,-238.979)"
         id="path12" />
    </clipPath>
    <linearGradient
       x1="0"
       y1="0"
       x2="1"
       y2="0"
       gradientUnits="userSpaceOnUse"
       gradientTransform="matrix(1233.82,1233.82,1233.82,-1233.82,219.148,30.7399)"
       spreadMethod="pad"
       id="linearGradient12">
      <stop
         style="stop-opacity:1;stop-color:#253169"
         offset="0"
         id="stop9" />
      <stop
         style="stop-opacity:1;stop-color:#253169"
         offset="0.24206275"
         id="stop10" />
      <stop
         style="stop-opacity:1;stop-color:#f2581a"
         offset="0.487202"
         id="stop11" />
      <stop
         style="stop-opacity:1;stop-color:#a9a8a8"
         offset="1"
         id="stop12" />
    </linearGradient>
    <clipPath
       clipPathUnits="userSpaceOnUse"
       id="clipPath12">
      <path
         d="M 1613.05,284 1239.32,68.2305 894.66,267.219 1268.86,483.27 V 914.254 L 1613.05,715.535 Z M 59.0742,284 59.0703,715.535 403.262,914.254 V 483.27 L 777.465,267.219 432.801,68.2305 Z m 403.2578,1130.56 373.727,215.78 373.721,-215.78 0.01,-397.43 L 836.059,1232.9 462.332,1017.13 Z M 865.598,715.535 1209.79,914.254 V 517.379 L 865.598,318.66 Z M 462.332,914.254 806.523,715.535 806.527,318.66 462.336,517.379 Z M 836.059,767.262 491.871,965.969 836.059,1164.69 1180.24,965.969 Z m 432.801,215.207 v 466.211 l -432.805,249.87 -432.797,-249.87 0.004,-465.657 v -0.554 L 0,749.648 V 249.879 L 432.801,0 836.063,232.828 1239.32,0 l 432.8,249.879 v 499.769 z"
         transform="translate(0,2.5e-5)"
         id="path12-3" />
    </clipPath>
  </defs>
  <g
     inkscape:label="Capa 1"
     inkscape:groupmode="layer"
     id="layer1">
    <g
       id="g1"
       transform="matrix(2.0584578,0,0,2.0584578,8.995198e-7,-5.2922829)">
      <path
         id="path2"
         d="M 6.4524706,3.7302745 H 6.0955587 v 0.6077119 h 0.3569119 c 0.2057841,0 0.3344028,-0.1189797 0.3344028,-0.3054862 0,-0.2122187 -0.1414891,-0.3022257 -0.3344028,-0.3022257 z M 6.8126143,5.572713 6.3592027,4.7624352 H 6.098762 V 5.572713 H 5.5231669 V 3.2800677 h 1.0032372 c 0.2282932,0 0.4051904,0.048221 0.5498543,0.1543591 0.1768399,0.1286182 0.2701078,0.3408369 0.2701078,0.5691579 0,0.2797454 -0.1350539,0.5530556 -0.434106,0.6752387 L 7.4396055,5.572713 H 6.8126143"
         style="fill:#253169;fill-opacity:1;fill-rule:nonzero;stroke:none;stroke-width:0.00286009" />
      <path
         id="path3"
         d="M 7.6996172,5.572713 V 3.2800677 H 8.2752123 V 5.572713 H 7.6996172"
         style="fill:#253169;fill-opacity:1;fill-rule:nonzero;stroke:none;stroke-width:0.00286009" />
      <path
         id="path4"
         d="M 9.6094489,3.7302745 H 9.2396952 v 0.6077119 h 0.3697537 c 0.1961743,0 0.3344315,-0.102906 0.3344315,-0.3086895 0,-0.1993769 -0.1286473,-0.2990224 -0.3344315,-0.2990224 z M 9.7155872,4.7785118 H 9.2396952 V 5.572713 H 8.6673034 V 3.2800677 h 1.0354134 c 0.5080112,0 0.8038882,0.3119215 0.8038882,0.7363588 0,0.3762163 -0.231554,0.7620853 -0.7910178,0.7620853"
         style="fill:#253169;fill-opacity:1;fill-rule:nonzero;stroke:none;stroke-width:0.00286009" />
      <path
         id="path5"
         d="M 10.795504,5.572713 V 3.2800677 h 1.688174 v 0.4662519 h -1.115782 v 0.4373078 h 0.938942 v 0.46304 h -0.938942 v 0.4566105 h 1.122188 V 5.572713 h -1.69458"
         style="fill:#253169;fill-opacity:1;fill-rule:nonzero;stroke:none;stroke-width:0.00286009" />
      <path
         id="path6-6"
         d="M 15.084424,5.572713 14.187296,4.2254133 h -0.0064 V 5.572713 H 13.650284 V 3.2800677 h 0.556318 l 0.871387,1.2958582 h 0.0064 V 3.2800677 h 0.533752 V 5.572713 h -0.533752"
         style="fill:#253169;fill-opacity:1;fill-rule:nonzero;stroke:none;stroke-width:0.00286009" />
      <path
         id="path7-4"
         d="m 16.926443,5.6113014 c -0.504808,0 -0.977525,-0.2540218 -0.977525,-0.8263773 V 4.0871565 c 0,-0.5626941 0.456615,-0.8456714 0.961422,-0.8456714 0.446977,0 0.932536,0.2250891 0.932536,0.7556644 V 4.1430713 H 17.30266 v -0.091294 c 0,-0.2379309 -0.202609,-0.3408369 -0.379421,-0.3408369 -0.202609,0 -0.398726,0.1061379 -0.398726,0.3666063 v 0.6945071 c 0,0.2347505 0.170433,0.3698011 0.405133,0.3698011 0.176869,0 0.373014,-0.099677 0.373014,-0.3408427 v -0.09541 h 0.540216 v 0.1532722 c 0,0.527352 -0.472689,0.7524268 -0.916433,0.7524268"
         style="fill:#253169;fill-opacity:1;fill-rule:nonzero;stroke:none;stroke-width:0.00286009" />
      <path
         id="path8-7"
         d="m 19.083616,5.6113014 c -0.504836,0 -0.977525,-0.2540218 -0.977525,-0.8263773 V 4.0871565 c 0,-0.5626941 0.456615,-0.8456714 0.961423,-0.8456714 0.446947,0 0.932478,0.2250891 0.932478,0.7556644 v 0.1459218 h -0.540187 v -0.091265 c 0,-0.2379595 -0.202581,-0.3408655 -0.379421,-0.3408655 -0.202581,0 -0.398698,0.1061379 -0.398698,0.3666063 v 0.6945071 c 0,0.2347505 0.170433,0.3698011 0.405133,0.3698011 0.176869,0 0.372986,-0.099677 0.372986,-0.3408427 v -0.08701 h 0.540187 v 0.1448721 c 0,0.527352 -0.47266,0.7524268 -0.916376,0.7524268"
         style="fill:#253169;fill-opacity:1;fill-rule:nonzero;stroke:none;stroke-width:0.00286009" />
      <path
         id="path9-2"
         d="M 1613.05,284 1239.32,68.2305 894.66,267.219 1268.86,483.27 V 914.254 L 1613.05,715.535 Z M 59.0742,284 59.0703,715.535 403.262,914.254 V 483.27 L 777.465,267.219 432.801,68.2305 Z m 403.2578,1130.56 373.727,215.78 373.721,-215.78 0.01,-397.43 L 836.059,1232.9 462.332,1017.13 Z M 865.598,715.535 1209.79,914.254 V 517.379 L 865.598,318.66 Z M 462.332,914.254 806.523,715.535 806.527,318.66 462.336,517.379 Z M 836.059,767.262 491.871,965.969 836.059,1164.69 1180.24,965.969 Z m 432.801,215.207 v 466.211 l -432.805,249.87 -432.797,-249.87 0.004,-465.657 v -0.554 L 0,749.648 V 249.879 L 432.801,0 836.063,232.828 1239.32,0 l 432.8,249.879 v 499.769 l -403.26,232.821"
         style="fill:url(#linearGradient12);fill-opacity:1;fill-rule:nonzero;stroke:none"
         transform="matrix(0.0028601,0,0,-0.00286009,-8.4983997e-7,7.4290001)"
         clip-path="url(#clipPath12)" />
      <path
         id="path13"
         d="m 5.6184082,6.4352075 h 0.08709 c 0.044875,0 0.077766,-0.00889 0.098702,-0.026713 0.020936,-0.017818 0.031404,-0.044566 0.031404,-0.080205 0,-0.03614 -0.01064,-0.062207 -0.031976,-0.078161 -0.021308,-0.015931 -0.055486,-0.023885 -0.1025918,-0.023885 h -0.082628 z m 0,0.054565 V 6.7170951 H 5.5548568 V 6.1705033 h 0.1498978 c 0.067041,0 0.1165777,0.01287 0.1486108,0.038523 0.032004,0.025663 0.048021,0.064298 0.048021,0.1158908 0,0.072272 -0.036609,0.1211277 -0.1098851,0.1465567 L 5.939912,6.7170951 H 5.8647772 L 5.7324118,6.4897723 H 5.6184082"
         style="fill:#555288;fill-opacity:1;fill-rule:nonzero;stroke:none;stroke-width:0.00286009" />
      <path
         id="path14"
         d="M 6.0304342,6.7170951 V 6.1705033 h 0.063551 v 0.5465918 h -0.063551"
         style="fill:#555288;fill-opacity:1;fill-rule:nonzero;stroke:none;stroke-width:0.00286009" />
      <path
         id="path15"
         d="m 6.3097516,6.4475316 h 0.057173 c 0.056344,0 0.097072,-0.0091 0.1222692,-0.027282 0.025169,-0.01819 0.037753,-0.047372 0.037753,-0.08749 0,-0.036132 -0.011841,-0.063034 -0.035522,-0.080743 -0.023682,-0.017672 -0.060548,-0.026544 -0.1106573,-0.026544 H 6.3097516 Z M 6.5927299,6.3297874 c 0,0.055314 -0.018877,0.097889 -0.05663,0.1276659 -0.037753,0.029805 -0.091781,0.044677 -0.1620533,0.044677 H 6.3097516 V 6.7170951 H 6.2462001 V 6.1705033 h 0.1416608 c 0.1365984,0 0.204869,0.053115 0.204869,0.1592841"
         style="fill:#555288;fill-opacity:1;fill-rule:nonzero;stroke:none;stroke-width:0.00286009" />
      <path
         id="path16"
         d="M 7.0141084,6.7170951 H 6.7094219 V 6.1705033 h 0.3046865 v 0.056455 H 6.773002 v 0.1760958 h 0.2265199 v 0.056063 H 6.773002 v 0.2011216 h 0.2411064 v 0.056856"
         style="fill:#555288;fill-opacity:1;fill-rule:nonzero;stroke:none;stroke-width:0.00286009" />
      <path
         id="path17"
         d="M 7.7656569,6.7170951 H 7.6931247 L 7.3944159,6.2583967 h -0.00297 c 0.00398,0.053796 0.00598,0.1031635 0.00598,0.1480097 V 6.7170951 H 7.3387297 V 6.1705033 h 0.07176 L 7.708455,6.6273712 h 0.003 c -5.148e-4,-0.00672 -0.00163,-0.028344 -0.00337,-0.06489 -0.00174,-0.036498 -0.00237,-0.062607 -0.00189,-0.078318 V 6.1705033 h 0.059461 v 0.5465918"
         style="fill:#555288;fill-opacity:1;fill-rule:nonzero;stroke:none;stroke-width:0.00286009" />
      <path
         id="path18"
         d="M 8.2229297,6.7170951 H 7.9182432 V 6.1705033 h 0.3046865 v 0.056455 H 7.9817946 v 0.1760958 h 0.2265485 v 0.056063 H 7.9817946 v 0.2011216 h 0.2411351 v 0.056856"
         style="fill:#555288;fill-opacity:1;fill-rule:nonzero;stroke:none;stroke-width:0.00286009" />
      <path
         id="path19"
         d="M 8.5145741,6.7170951 H 8.4510226 V 6.2269586 H 8.2779294 v -0.056455 h 0.4097379 v 0.056455 H 8.5145741 v 0.4901365"
         style="fill:#555288;fill-opacity:1;fill-rule:nonzero;stroke:none;stroke-width:0.00286009" />
      <path
         id="path20"
         d="M 9.2492479,6.7170951 H 9.1864401 L 9.0761547,6.3510922 c -0.00523,-0.016222 -0.011097,-0.036643 -0.017561,-0.061323 -0.00649,-0.024657 -0.00987,-0.039495 -0.010096,-0.044477 -0.00549,0.032891 -0.014215,0.068931 -0.02617,0.1080227 L 8.9153885,6.7170951 H 8.8526093 L 8.7071732,6.1705033 h 0.067298 l 0.086346,0.337605 c 0.011984,0.047334 0.020679,0.090204 0.02617,0.1285897 0.00672,-0.045616 0.016703,-0.090204 0.029917,-0.1338522 l 0.09793,-0.3323425 h 0.067298 l 0.1028206,0.3353684 c 0.011955,0.038611 0.022051,0.082228 0.030288,0.1308263 0.00472,-0.035382 0.0137,-0.078507 0.026913,-0.1293276 l 0.085975,-0.3368671 h 0.067298 L 9.2492479,6.7170951"
         style="fill:#555288;fill-opacity:1;fill-rule:nonzero;stroke:none;stroke-width:0.00286009" />
      <path
         id="path21"
         d="m 9.5222159,6.4430727 c 0,0.073982 0.01573,0.1301341 0.047277,0.1683993 0.031518,0.038265 0.077337,0.057371 0.1373992,0.057371 0.060548,0 0.1062814,-0.019048 0.137199,-0.057202 0.030889,-0.038119 0.046362,-0.094329 0.046362,-0.168568 0,-0.073536 -0.015387,-0.1293075 -0.046191,-0.1673152 -0.030775,-0.038019 -0.076336,-0.056999 -0.1366269,-0.056999 -0.060577,0 -0.1066246,0.019125 -0.1381429,0.057368 -0.031547,0.038265 -0.047277,0.093891 -0.047276,0.1669459 z m 0.4355074,0 c 0,0.087456 -0.022109,0.1562439 -0.066354,0.2063298 -0.044246,0.050106 -0.1057379,0.075155 -0.1844765,0.075155 -0.080512,0 -0.1426331,-0.024588 -0.1863641,-0.073848 -0.04376,-0.049191 -0.065611,-0.1186937 -0.065611,-0.2084061 0,-0.088989 0.021908,-0.1579428 0.065782,-0.2068989 0.043874,-0.049002 0.1061669,-0.073481 0.1869362,-0.073481 0.07851,0 0.1398017,0.024937 0.183933,0.074766 0.044103,0.049851 0.066154,0.1186394 0.066154,0.2063841"
         style="fill:#555288;fill-opacity:1;fill-rule:nonzero;stroke:none;stroke-width:0.00286009" />
      <path
         id="path22"
         d="m 10.14546,6.4352075 h 0.08712 c 0.04485,0 0.07777,-0.00889 0.0987,-0.026713 0.02096,-0.017818 0.0314,-0.044566 0.0314,-0.080205 0,-0.03614 -0.01067,-0.062207 -0.03195,-0.078161 -0.02134,-0.015931 -0.05554,-0.023885 -0.102649,-0.023885 h -0.08263 z m 0,0.054565 v 0.2273228 h -0.06355 v -0.546592 h 0.149926 c 0.06704,0 0.116549,0.01287 0.148611,0.038523 0.03201,0.025663 0.04805,0.064298 0.04805,0.1158908 0,0.072272 -0.03667,0.1211277 -0.109942,0.1465567 l 0.14841,0.2456217 h -0.07514 L 10.259492,6.4897723 H 10.14546"
         style="fill:#555288;fill-opacity:1;fill-rule:nonzero;stroke:none;stroke-width:0.00286009" />
      <path
         id="path23"
         d="m 10.952294,6.7170951 h -0.07476 l -0.199263,-0.2650731 -0.0572,0.050824 v 0.2142493 h -0.06358 v -0.546592 h 0.06358 V 6.441554 l 0.247857,-0.2710507 h 0.07513 l -0.219827,0.2374103 0.228064,0.3091815"
         style="fill:#555288;fill-opacity:1;fill-rule:nonzero;stroke:none;stroke-width:0.00286009" />
      <path
         id="path24"
         d="m 11.464939,6.2194938 c -0.06006,0 -0.107483,0.020001 -0.142262,0.060007 -0.03475,0.039984 -0.05214,0.094752 -0.05214,0.1643093 0,0.071537 0.01676,0.1267935 0.05028,0.165808 0.03352,0.03898 0.08134,0.058509 0.143377,0.058509 0.03815,0 0.08163,-0.00686 0.130478,-0.02059 v 0.055715 c -0.0379,0.014189 -0.08463,0.021305 -0.140202,0.021305 -0.08051,0 -0.142633,-0.024422 -0.186364,-0.073278 -0.04373,-0.048845 -0.06561,-0.118259 -0.06561,-0.208206 0,-0.056352 0.01052,-0.1056889 0.0316,-0.148064 0.02105,-0.042366 0.05145,-0.075 0.09121,-0.097935 0.03975,-0.022938 0.08655,-0.034413 0.140373,-0.034413 0.05732,0 0.107426,0.010468 0.150299,0.031407 l -0.02691,0.054599 c -0.04139,-0.01944 -0.08277,-0.029173 -0.124128,-0.029173"
         style="fill:#555288;fill-opacity:1;fill-rule:nonzero;stroke:none;stroke-width:0.00286009" />
      <path
         id="path25"
         d="m 11.755067,6.4430727 c 0,0.073982 0.01579,0.1301341 0.04734,0.1683993 0.03149,0.038265 0.07731,0.057371 0.137342,0.057371 0.06061,0 0.10631,-0.019048 0.137228,-0.057202 0.03089,-0.038119 0.04633,-0.094329 0.04633,-0.168568 0,-0.073536 -0.01539,-0.1293075 -0.04616,-0.1673152 -0.03077,-0.038019 -0.07631,-0.056999 -0.136627,-0.056999 -0.06055,0 -0.106624,0.019125 -0.138114,0.057368 -0.03155,0.038265 -0.04734,0.093891 -0.04734,0.1669463 z m 0.435565,0 c 0,0.087456 -0.02211,0.1562439 -0.06635,0.2063298 -0.04425,0.050106 -0.105767,0.075155 -0.184534,0.075155 -0.08048,0 -0.142605,-0.024588 -0.186336,-0.073848 -0.04373,-0.049191 -0.06561,-0.1186937 -0.06561,-0.2084061 0,-0.088989 0.02194,-0.1579428 0.06581,-0.2068989 0.04384,-0.049002 0.106167,-0.073481 0.186907,-0.073481 0.07851,0 0.139831,0.024937 0.183933,0.074766 0.0441,0.049851 0.06618,0.1186394 0.06618,0.2063841"
         style="fill:#555288;fill-opacity:1;fill-rule:nonzero;stroke:none;stroke-width:0.00286009" />
      <path
         id="path26"
         d="m 12.353686,6.4430727 c 0,0.073982 0.01579,0.1301341 0.04731,0.1683993 0.03152,0.038265 0.07734,0.057371 0.137371,0.057371 0.06058,0 0.10631,-0.019048 0.137228,-0.057202 0.03089,-0.038119 0.04633,-0.094329 0.04633,-0.168568 0,-0.073536 -0.01539,-0.1293075 -0.04616,-0.1673152 -0.03078,-0.038019 -0.07631,-0.056999 -0.136627,-0.056999 -0.06058,0 -0.106624,0.019125 -0.138143,0.057368 -0.03152,0.038265 -0.04731,0.093891 -0.04731,0.1669463 z m 0.435565,0 c 0,0.087456 -0.02214,0.1562439 -0.06638,0.2063298 -0.04425,0.050106 -0.105738,0.075155 -0.184505,0.075155 -0.08048,0 -0.142605,-0.024588 -0.186336,-0.073848 -0.04376,-0.049191 -0.06561,-0.1186937 -0.06561,-0.2084061 0,-0.088989 0.02191,-0.1579428 0.06578,-0.2068989 0.04387,-0.049002 0.106167,-0.073481 0.186936,-0.073481 0.07851,0 0.139802,0.024937 0.183933,0.074766 0.0441,0.049851 0.06618,0.1186394 0.06618,0.2063841"
         style="fill:#555288;fill-opacity:1;fill-rule:nonzero;stroke:none;stroke-width:0.00286009" />
      <path
         id="path27"
         d="m 12.976959,6.4352075 h 0.08709 c 0.04487,0 0.07777,-0.00889 0.0987,-0.026713 0.02097,-0.017818 0.0314,-0.044566 0.0314,-0.080205 0,-0.03614 -0.01064,-0.062207 -0.03195,-0.078161 -0.02131,-0.015931 -0.05554,-0.023885 -0.10262,-0.023885 h -0.08263 z m 0,0.054565 v 0.2273228 h -0.06358 v -0.546592 h 0.149955 c 0.06701,0 0.116549,0.01287 0.148582,0.038523 0.03203,0.025663 0.04805,0.064298 0.04805,0.1158908 0,0.072272 -0.03667,0.1211277 -0.109913,0.1465567 l 0.14841,0.2456217 H 13.2233 L 13.090963,6.4897723 h -0.114004"
         style="fill:#555288;fill-opacity:1;fill-rule:nonzero;stroke:none;stroke-width:0.00286009" />
      <path
         id="path28"
         d="m 13.757967,6.4408047 c 0,-0.071268 -0.01788,-0.1249831 -0.05366,-0.1611032 -0.03575,-0.036151 -0.08892,-0.05423 -0.159422,-0.05423 h -0.09235 V 6.662127 h 0.07737 c 0.07579,0 0.132738,-0.018645 0.170863,-0.055895 0.03815,-0.037258 0.0572,-0.092404 0.0572,-0.1654276 z m 0.06727,-0.00226 c 0,0.090273 -0.02445,0.1592269 -0.07345,0.2069561 -0.04897,0.047738 -0.119438,0.071591 -0.211419,0.071591 H 13.388957 V 6.1705033 h 0.167516 c 0.08497,0 0.151013,0.023564 0.198147,0.070676 0.04708,0.047068 0.07062,0.1128849 0.07062,0.1973691"
         style="fill:#555288;fill-opacity:1;fill-rule:nonzero;stroke:none;stroke-width:0.00286009" />
      <path
         id="path29"
         d="M 13.949422,6.7170951 V 6.1705033 h 0.06358 v 0.5465918 h -0.06358"
         style="fill:#555288;fill-opacity:1;fill-rule:nonzero;stroke:none;stroke-width:0.00286009" />
      <path
         id="path30"
         d="m 14.592144,6.7170951 h -0.07253 L 14.220903,6.2583967 h -0.003 c 0.0039,0.053796 0.006,0.1031635 0.006,0.1480097 v 0.3106887 h -0.05872 V 6.1705033 h 0.07179 l 0.297966,0.4568679 h 0.003 c -4.86e-4,-0.00672 -0.0016,-0.028344 -0.0033,-0.06489 -0.0017,-0.036498 -0.0024,-0.062607 -0.0019,-0.078318 V 6.1705033 h 0.05943 v 0.5465918"
         style="fill:#555288;fill-opacity:1;fill-rule:nonzero;stroke:none;stroke-width:0.00286009" />
      <path
         id="path31"
         d="m 15.000451,6.4860542 -0.06358,-0.1693374 c -0.0082,-0.021451 -0.01667,-0.047741 -0.0254,-0.078887 -0.0055,0.023907 -0.01333,0.050217 -0.02354,0.078887 l -0.0643,0.1693374 z m 0.08783,0.2310409 -0.06801,-0.1738391 H 14.80116 l -0.06727,0.1738391 h -0.0643 l 0.216052,-0.5488255 h 0.05348 l 0.214965,0.5488255 h -0.06581"
         style="fill:#555288;fill-opacity:1;fill-rule:nonzero;stroke:none;stroke-width:0.00286009" />
      <path
         id="path32"
         d="m 15.399779,6.7170951 h -0.06358 V 6.2269586 h -0.173065 v -0.056455 h 0.409738 v 0.056455 h -0.173093 v 0.4901365"
         style="fill:#555288;fill-opacity:1;fill-rule:nonzero;stroke:none;stroke-width:0.00286009" />
      <path
         id="path33"
         d="M 15.657388,6.7170951 V 6.1705033 h 0.06358 v 0.5465918 h -0.06358"
         style="fill:#555288;fill-opacity:1;fill-rule:nonzero;stroke:none;stroke-width:0.00286009" />
      <path
         id="path34"
         d="m 15.912022,6.4430727 c 0,0.073982 0.01579,0.1301341 0.04734,0.1683993 0.03149,0.038265 0.07731,0.057371 0.137342,0.057371 0.06058,0 0.10631,-0.019048 0.137228,-0.057202 0.03089,-0.038119 0.04633,-0.094329 0.04633,-0.168568 0,-0.073536 -0.01539,-0.1293075 -0.04616,-0.1673152 -0.03077,-0.038019 -0.07631,-0.056999 -0.136627,-0.056999 -0.06058,0 -0.106624,0.019125 -0.138114,0.057368 -0.03155,0.038265 -0.04734,0.093891 -0.04734,0.1669463 z m 0.435565,0 c 0,0.087456 -0.02214,0.1562439 -0.06638,0.2063298 -0.04422,0.050106 -0.105738,0.075155 -0.184505,0.075155 -0.08048,0 -0.142604,-0.024588 -0.186335,-0.073848 -0.04376,-0.049191 -0.06561,-0.1186937 -0.06561,-0.2084061 0,-0.088989 0.02191,-0.1579428 0.06578,-0.2068989 0.04387,-0.049002 0.106167,-0.073481 0.186936,-0.073481 0.07851,0 0.139802,0.024937 0.183933,0.074766 0.0441,0.049851 0.06618,0.1186394 0.06618,0.2063841"
         style="fill:#555288;fill-opacity:1;fill-rule:nonzero;stroke:none;stroke-width:0.00286009" />
      <path
         id="path35"
         d="M 16.8987,6.7170951 H 16.82617 L 16.527487,6.2583967 h -0.003 c 0.004,0.053796 0.006,0.1031635 0.006,0.1480097 v 0.3106887 h -0.05869 V 6.1705033 h 0.07176 l 0.297965,0.4568679 h 0.003 c -5.15e-4,-0.00672 -0.0016,-0.028344 -0.0033,-0.06489 -0.0018,-0.036498 -0.0024,-0.062607 -0.0019,-0.078318 V 6.1705033 h 0.05943 v 0.5465918"
         style="fill:#555288;fill-opacity:1;fill-rule:nonzero;stroke:none;stroke-width:0.00286009" />
      <path
         id="path36"
         d="m 17.486479,6.2194938 c -0.06006,0 -0.107483,0.020001 -0.142261,0.060007 -0.03472,0.039984 -0.05214,0.094752 -0.05214,0.1643093 0,0.071537 0.01676,0.1267935 0.05028,0.165808 0.03352,0.03898 0.08134,0.058509 0.143376,0.058509 0.03815,0 0.08163,-0.00686 0.130478,-0.02059 v 0.055715 c -0.0379,0.014189 -0.08463,0.021305 -0.140202,0.021305 -0.08051,0 -0.142605,-0.024422 -0.186364,-0.073278 -0.04373,-0.048845 -0.06561,-0.118259 -0.06561,-0.208206 0,-0.056352 0.01052,-0.1056889 0.0316,-0.148064 0.02105,-0.042366 0.05148,-0.075 0.09121,-0.097935 0.03975,-0.022938 0.08657,-0.034413 0.140374,-0.034413 0.05732,0 0.107425,0.010468 0.150298,0.031407 l -0.02691,0.054599 c -0.04136,-0.01944 -0.08277,-0.029173 -0.124128,-0.029173"
         style="fill:#555288;fill-opacity:1;fill-rule:nonzero;stroke:none;stroke-width:0.00286009" />
      <path
         id="path37"
         d="M 18.042454,6.7170951 H 17.737739 V 6.1705033 h 0.304715 v 0.056455 h -0.241135 v 0.1760958 h 0.226548 v 0.056063 h -0.226548 v 0.2011216 h 0.241135 v 0.056856"
         style="fill:#555288;fill-opacity:1;fill-rule:nonzero;stroke:none;stroke-width:0.00286009" />
      <path
         id="path38"
         d="m 18.592823,6.7170951 h -0.07253 L 18.221582,6.2583967 h -0.003 c 0.0039,0.053796 0.006,0.1031635 0.006,0.1480097 v 0.3106887 h -0.05872 V 6.1705033 h 0.07179 l 0.297965,0.4568679 h 0.003 c -4.86e-4,-0.00672 -0.0016,-0.028344 -0.0033,-0.06489 -0.0018,-0.036498 -0.0024,-0.062607 -0.0019,-0.078318 V 6.1705033 h 0.05943 v 0.5465918"
         style="fill:#555288;fill-opacity:1;fill-rule:nonzero;stroke:none;stroke-width:0.00286009" />
      <path
         id="path39"
         d="M 18.913612,6.7170951 H 18.85006 V 6.2269586 h -0.173093 v -0.056455 h 0.409738 v 0.056455 h -0.173093 v 0.4901365"
         style="fill:#555288;fill-opacity:1;fill-rule:nonzero;stroke:none;stroke-width:0.00286009" />
      <path
         id="path40"
         d="m 19.234801,6.4352075 h 0.08709 c 0.04487,0 0.07777,-0.00889 0.0987,-0.026713 0.02094,-0.017818 0.0314,-0.044566 0.0314,-0.080205 0,-0.03614 -0.01064,-0.062207 -0.03195,-0.078161 -0.02134,-0.015931 -0.05554,-0.023885 -0.102621,-0.023885 h -0.08263 z m 0,0.054565 v 0.2273228 h -0.06358 v -0.546592 h 0.149955 c 0.06701,0 0.116549,0.01287 0.148582,0.038523 0.03203,0.025663 0.04805,0.064298 0.04805,0.1158908 0,0.072272 -0.03667,0.1211277 -0.109914,0.1465567 l 0.148411,0.2456217 h -0.07516 L 19.348804,6.4897723 h -0.114003"
         style="fill:#555288;fill-opacity:1;fill-rule:nonzero;stroke:none;stroke-width:0.00286009" />
      <path
         id="path41"
         d="M 19.951513,6.7170951 H 19.646798 V 6.1705033 h 0.304715 v 0.056455 h -0.241135 v 0.1760958 h 0.226549 v 0.056063 h -0.226549 v 0.2011216 h 0.241135 v 0.056856"
         style="fill:#555288;fill-opacity:1;fill-rule:nonzero;stroke:none;stroke-width:0.00286009" />
    </g>
  </g>
</svg>
